# xmcd CD database file
#
# Track frame offsets:
#	150
#	22522
#	48952
#	85037
#	117372
#	125492
#	154245
#	186517
#	210095
#	245670
#	259627
#
# Disc length: 3548 seconds
#
# Revision: 1
# Processed by: cddbd v1.4PL0 Copyright (c) Steve Scherf et al.
# Submitted via: CDex 1.50Beta7
#
DISCID=860dda0b
DTITLE=Don Braden - Landing Zone
DYEAR=1995
DGENRE=Jazz
TTITLE0=Landing Zone
TTITLE1=You Are The Sunshine Of My Life
TTITLE2=Nightline
TTITLE3=Body And Soul
TTITLE4=The Break
TTITLE5=Hillside
TTITLE6=Come Rain Or Come Shine
TTITLE7=Have You Met Miss Jones
TTITLE8=A Blue Spree
TTITLE9=Amsterdam Jam
TTITLE10=Quadralog
EXTD=YEAR: 1995
EXTT0=
EXTT1=
EXTT2=
EXTT3=
EXTT4=
EXTT5=
EXTT6=
EXTT7=
EXTT8=
EXTT9=
EXTT10=
PLAYORDER=
